<svg class="svg-icon"
    style="width: 1em; height: 1em;vertical-align: middle;fill: currentColor;overflow: hidden;"
    viewBox="0 0 1024 1024" version="1.1" xmlns="http://www.w3.org/2000/svg">
    <path
        d="M726.766388 376.49277c3.593851 0 7.188726 0 7.188726 3.593851 3.593851 0 7.188726 3.593851 7.188726 7.188726l0 0 0 0 0 0 0 0c10.782577 17.97028 25.159006 43.129286 43.129286 68.288293 53.911864 79.07087 122.200156 183.300746 122.200156 244.400313l0 0 0 0 0 0c0 50.318012-21.565155 97.04115-53.911864 129.388882-32.346709 32.346709-75.477019 50.318012-125.794008 50.318012l0-32.346709c39.535435 0 75.477019-17.97028 100.636025-43.129286 28.752858-28.752858 43.129286-64.694441 43.129286-104.229876l0 0 0 0 0 0c0-50.318012-64.694441-147.359162-115.012454-226.430032-10.782577-14.376429-17.97028-28.752858-28.752858-43.129286L726.767412 376.49277zM586.595952 286.639323l43.129286 75.477019c3.593851 3.593851 3.593851 7.188726 3.593851 10.782577l0 0 0 132.982734c10.782577-17.97028 21.565155-35.941584 32.346709-50.318012 17.97028-28.752858 35.941584-50.318012 43.129286-68.288293 3.593851-7.188726 10.782577-10.782577 17.97028-10.782577l0 53.911864 0 0c-10.782577 10.782577-21.565155 28.752858-32.346709 43.129286-35.941584 57.505715-71.882144 115.012454-97.04115 179.705871-3.593851 7.188726-7.188726 14.376429-10.782577 25.159006L586.594929 574.169945l3.593851-7.188726 0-190.488449-3.593851-7.188726L586.594929 286.639323 586.595952 286.639323zM726.766388 879.669824 726.766388 879.669824 726.766388 879.669824 726.766388 879.669824 726.766388 879.669824 726.766388 879.669824c-35.941584 0-64.694441-7.188726-93.447299-25.159006l0 14.376429c0 14.376429-7.188726 21.565155-21.565155 21.565155l0 0-25.159006 0 0-43.129286 3.593851 0 0-21.565155c0 0 0 0-3.593851-3.593851l0-89.853447c17.97028 64.694441 71.882144 115.012454 140.170436 115.012454l0 0 0 0 0 0 0 0 0 0L726.765365 879.669824zM568.624648 254.292614c0 3.593851 3.593851 3.593851 3.593851 7.188726l0 0 0 0 14.376429 25.159006 0 82.664721-43.129286-75.477019-82.664721 0 0-50.318012 71.882144 0 0-79.07087-71.882144 0 0-32.346709 89.853447 0c10.782577 0 17.97028 7.188726 17.97028 17.97028l0 0L568.624648 254.292614 568.624648 254.292614zM586.595952 890.452401 460.800921 890.452401l0-43.129286 125.794008 0L586.594929 890.452401 586.595952 890.452401zM586.595952 574.169945l0 104.229876c0 7.188726-3.593851 14.376429-3.593851 21.565155l0 0 0 0c0 10.782577 3.593851 25.159006 3.593851 32.346709l0 89.853447c-7.188726-10.782577-17.97028-25.159006-25.159006-35.941584 0-3.593851-3.593851-7.188726-3.593851-10.782577l0 0 0 0 0 0 0 0 0 0 0 0c-10.782577-25.159006-14.376429-46.723138-14.376429-75.477019l0 0 0 0c0-17.97028 3.593851-39.535435 14.376429-64.694441C565.030797 617.299231 575.813375 595.734076 586.595952 574.169945zM460.800921 890.452401 248.748341 890.452401l0-43.129286 212.053604 0L460.801944 890.452401 460.800921 890.452401zM248.748341 326.174758l97.04115-71.882144c3.593851 0 3.593851 0 3.593851-3.593851l0-100.636025c0-10.782577 10.782577-17.97028 17.97028-17.97028l0 0 93.447299 0 0 32.346709-75.477019 0 0 79.07087 75.477019 0 0 50.318012-93.447299 0-118.606305 82.664721L248.747317 326.174758 248.748341 326.174758zM248.748341 739.499387l0-35.941584 28.752858 0 0-190.488449-28.752858 0 0-35.941584 46.723138 0c7.188726 0 17.97028 7.188726 17.97028 17.97028l0 0 0 226.430032c0 10.782577-10.782577 17.97028-17.97028 17.97028l0 0L248.748341 739.498364zM248.748341 890.452401l-111.417579 0c-14.376429 0-21.565155-7.188726-21.565155-21.565155l0 0L115.765607 430.404634c0-7.188726 3.593851-14.376429 7.188726-17.97028l0 0 125.794008-86.258573 0 50.318012-93.447299 64.694441 0 406.135904 93.447299 0L248.748341 890.452401 248.748341 890.452401zM248.748341 477.127771l-46.723138 0 0 0c-10.782577 0-17.97028 7.188726-17.97028 17.97028L184.054923 717.934233l0 3.593851c0 10.782577 7.188726 17.97028 17.97028 17.97028l46.723138 0 0-35.941584L219.99446 703.556781l0-190.488449 28.752858 0L248.747317 477.127771z" />
</svg>