<svg width="169" height="128" viewBox="0 0 169 128" fill="none" xmlns="http://www.w3.org/2000/svg">
<path d="M42.0833 127.218H58.9167V109.044H42.0833C28.1622 109.044 16.8333 96.8132 16.8333 81.7832C16.8333 69.0251 26.9249 56.7394 39.3311 54.3859L44.2212 53.459L45.8372 48.3884C51.7541 29.7509 66.4496 18.1741 84.1667 18.1741C107.371 18.1741 126.25 38.5563 126.25 63.6092V72.6962H134.667C143.95 72.6962 151.5 80.8473 151.5 90.8703C151.5 100.893 143.95 109.044 134.667 109.044H109.417V127.218H134.667C153.234 127.218 168.333 110.916 168.333 90.8703C168.32 82.7247 165.78 74.8188 161.118 68.4147C156.455 62.0106 149.94 57.4778 142.612 55.5399C138.934 24.2624 114.13 0 84.1667 0C60.9703 0 40.8208 14.6392 31.6214 37.7112C13.5424 43.545 0 61.9735 0 81.7832C0 106.836 18.8786 127.218 42.0833 127.218Z" fill="#182B3B"/>
<path d="M92.5279 127.431V90.9616H117.61L84.1673 45.375L50.7251 90.9616H75.8068V127.431H92.5279Z" fill="#182B3B"/>
</svg>
