<svg width="127" height="127" viewBox="0 0 127 127" fill="none" xmlns="http://www.w3.org/2000/svg">
<g filter="url(#filter0_d_2094_268)">
<circle cx="63.5" cy="59.5" r="59.5" fill="#DFE7EC"/>
</g>
<path d="M83.4444 64.5285V53.532C83.4444 43.6671 77.375 35.3569 69.1528 32.8577C68.3389 30.5946 66.35 29 64 29C61.65 29 59.6611 30.5946 58.8472 32.8577C50.625 35.3599 44.5556 43.6671 44.5556 53.532V64.5285L39.8139 69.763C39.5554 70.0473 39.3505 70.3852 39.2108 70.7572C39.0711 71.1293 38.9995 71.5282 39 71.931V78.064C39 78.8773 39.2927 79.6573 39.8136 80.2323C40.3345 80.8074 41.0411 81.1305 41.7778 81.1305H86.2222C86.9589 81.1305 87.6655 80.8074 88.1864 80.2323C88.7073 79.6573 89 78.8773 89 78.064V71.931C89.0005 71.5282 88.9289 71.1293 88.7892 70.7572C88.6495 70.3852 88.4446 70.0473 88.1861 69.763L83.4444 64.5285ZM83.4444 74.9975H44.5556V73.2005L49.2972 67.966C49.5557 67.6817 49.7606 67.3438 49.9003 66.9717C50.04 66.5997 50.1116 66.2008 50.1111 65.798V53.532C50.1111 45.0777 56.3417 38.1995 64 38.1995C71.6583 38.1995 77.8889 45.0777 77.8889 53.532V65.798C77.8889 66.6137 78.1805 67.3926 78.7028 67.966L83.4444 73.2005V74.9975ZM64 90.33C65.7203 90.3324 67.3985 89.743 68.8014 88.6439C70.2042 87.5448 71.262 85.9905 71.8278 84.197H56.1722C56.738 85.9905 57.7958 87.5448 59.1986 88.6439C60.6015 89.743 62.2797 90.3324 64 90.33Z" fill="#182B3B"/>
<circle cx="103" cy="20" r="10" fill="#FFA800"/>
<defs>
<filter id="filter0_d_2094_268" x="0" y="0" width="127" height="127" filterUnits="userSpaceOnUse" color-interpolation-filters="sRGB">
<feFlood flood-opacity="0" result="BackgroundImageFix"/>
<feColorMatrix in="SourceAlpha" type="matrix" values="0 0 0 0 0 0 0 0 0 0 0 0 0 0 0 0 0 0 127 0" result="hardAlpha"/>
<feOffset dy="4"/>
<feGaussianBlur stdDeviation="2"/>
<feComposite in2="hardAlpha" operator="out"/>
<feColorMatrix type="matrix" values="0 0 0 0 0 0 0 0 0 0 0 0 0 0 0 0 0 0 0.25 0"/>
<feBlend mode="normal" in2="BackgroundImageFix" result="effect1_dropShadow_2094_268"/>
<feBlend mode="normal" in="SourceGraphic" in2="effect1_dropShadow_2094_268" result="shape"/>
</filter>
</defs>
</svg>
