<?xml version="1.0" standalone="no"?>
<!DOCTYPE svg PUBLIC "-//W3C//DTD SVG 20010904//EN"
 "http://www.w3.org/TR/2001/REC-SVG-20010904/DTD/svg10.dtd">
<svg version="1.0" xmlns="http://www.w3.org/2000/svg"
 width="80.000000pt" height="80.000000pt" viewBox="0 0 80.000000 80.000000"
 preserveAspectRatio="xMidYMid meet">
<metadata>
Created by potrace 1.10, written by Peter Selinger 2001-2011
</metadata>
<g transform="translate(0.000000,80.000000) scale(0.100000,-0.100000)"
fill="#000000" stroke="none">
<path d="M430 620 c0 -5 15 -10 33 -10 29 0 36 -5 51 -37 10 -22 12 -33 5 -25
-8 7 -41 12 -86 12 -64 0 -77 -3 -97 -23 -16 -16 -29 -21 -42 -17 -11 4 -45
10 -77 14 -62 8 -87 -2 -87 -34 0 -11 -11 -22 -28 -28 -34 -12 -79 -48 -70
-57 3 -4 20 3 37 16 31 23 141 41 141 23 -1 -21 -18 -29 -64 -29 -43 -1 -52
-5 -82 -38 -26 -27 -34 -46 -34 -73 0 -124 161 -170 224 -64 18 32 21 60 6 60
-5 0 -10 -7 -10 -16 0 -29 -65 -84 -100 -84 -44 0 -100 56 -100 100 0 44 56
100 99 100 17 0 31 -4 31 -9 0 -23 -14 -41 -30 -41 -43 0 -64 -54 -34 -84 19
-20 44 -20 70 -1 18 13 16 14 -21 12 -36 -2 -40 0 -40 22 0 13 6 26 14 29 9 3
11 -1 6 -17 -8 -25 -6 -25 65 -6 75 20 83 19 102 -15 16 -28 20 -30 82 -30 80
0 89 8 118 107 21 74 39 96 60 75 8 -8 5 -17 -13 -31 -13 -10 -21 -23 -17 -27
5 -4 17 1 28 11 24 21 19 25 56 -47 27 -56 52 -79 39 -37 -5 16 -3 20 6 17 8
-3 14 -16 14 -29 0 -37 -39 -38 -59 -2 -14 25 -15 26 -16 6 0 -45 53 -69 84
-37 30 30 9 84 -34 84 -16 0 -30 18 -30 41 0 5 14 9 31 9 22 0 41 -10 65 -34
46 -46 46 -86 0 -132 -46 -46 -86 -46 -132 0 -38 38 -44 77 -18 114 22 32 7
43 -17 13 -23 -29 -25 -83 -3 -121 47 -79 161 -79 208 0 49 83 -20 190 -115
177 -22 -3 -37 -1 -33 4 3 5 16 9 30 9 13 0 24 5 24 11 0 8 -12 10 -35 6 -27
-5 -37 -2 -45 13 -7 13 -6 19 5 24 21 8 20 65 -1 73 -9 3 -24 1 -34 -5 -14 -9
-20 -4 -34 29 -16 36 -21 39 -57 39 -21 0 -39 -4 -39 -10z m83 -131 c-2 -25
-13 -79 -26 -120 l-23 -74 -61 -3 c-61 -3 -62 -2 -78 29 -16 30 -16 33 14 89
33 62 36 70 22 70 -4 0 -19 -20 -32 -45 -13 -25 -27 -45 -31 -45 -5 0 -28 54
-28 66 0 2 14 4 30 4 23 0 30 4 30 20 0 11 9 29 20 40 18 18 31 20 93 18 l72
-3 -2 -46z m-245 16 c69 -11 48 -25 -38 -25 -60 0 -80 3 -80 13 0 22 13 29 45
23 16 -2 49 -8 73 -11z m-2 -98 c14 -32 18 -53 12 -56 -6 -2 -15 3 -19 10 -22
36 -28 43 -36 36 -4 -4 -1 -17 6 -28 15 -25 13 -27 -28 -35 l-32 -7 33 67 c18
36 35 66 38 66 3 0 15 -24 26 -53z"/>
<path d="M380 430 c0 -5 23 -10 50 -10 28 0 50 5 50 10 0 6 -22 10 -50 10 -27
0 -50 -4 -50 -10z"/>
<path d="M390 400 c0 -5 18 -10 40 -10 22 0 40 5 40 10 0 6 -18 10 -40 10 -22
0 -40 -4 -40 -10z"/>
<path d="M349 364 c-20 -24 1 -48 45 -52 69 -6 91 40 29 57 -50 14 -58 14 -74
-5z m60 -10 c44 -9 39 -24 -9 -24 -29 0 -40 4 -40 15 0 17 4 18 49 9z"/>
</g>
</svg>
